<svg width="26" height="26" viewBox="0 0 26 26" fill="none" xmlns="http://www.w3.org/2000/svg">
<path d="M7.68182 0C3.445 0 0 3.44446 0 7.68062V18.3153C0 22.5515 3.445 25.9959 7.68182 25.9959H18.3182C22.555 25.9959 26 22.5515 26 18.3153V7.68062C26 3.44446 22.555 0 18.3182 0H7.68182ZM20.0909 4.72653C20.7409 4.72653 21.2727 5.25827 21.2727 5.90817C21.2727 6.55807 20.7409 7.0898 20.0909 7.0898C19.4409 7.0898 18.9091 6.55807 18.9091 5.90817C18.9091 5.25827 19.4409 4.72653 20.0909 4.72653ZM13 6.49899C16.5868 6.49899 19.5 9.41171 19.5 12.998C19.5 16.5842 16.5868 19.497 13 19.497C9.41318 19.497 6.5 16.5842 6.5 12.998C6.5 9.41171 9.41318 6.49899 13 6.49899ZM13 7.68062C10.0691 7.68062 7.68182 10.0675 7.68182 12.998C7.68182 15.9284 10.0691 18.3153 13 18.3153C15.9309 18.3153 18.3182 15.9284 18.3182 12.998C18.3182 10.0675 15.9309 7.68062 13 7.68062Z" fill="white"/>
</svg>
