<svg width="26" height="27" viewBox="0 0 26 27" fill="none" xmlns="http://www.w3.org/2000/svg">
<path d="M13 0.382507C5.83198 0.382507 8.38913e-05 6.21442 8.38913e-05 13.3825C8.38913e-05 15.6208 0.578299 17.8217 1.67482 19.7638L0.0209968 25.6647C-0.0332639 25.8585 0.0193013 26.0665 0.159475 26.2107C0.267431 26.322 0.414387 26.3825 0.565299 26.3825C0.610517 26.3825 0.656299 26.3769 0.700951 26.3661L6.85954 24.8406C8.74001 25.8501 10.8579 26.3825 13 26.3825C20.1681 26.3825 26 20.5506 26 13.3825C26 6.21442 20.1681 0.382507 13 0.382507ZM19.5396 17.9698C19.2615 18.7396 17.9276 19.4422 17.2866 19.5366C16.7112 19.6208 15.9833 19.657 15.184 19.406C14.6996 19.2534 14.0779 19.0511 13.2815 18.7114C9.93375 17.2836 7.74749 13.9551 7.58019 13.7352C7.41345 13.5153 6.21746 11.9486 6.21746 10.3269C6.21746 8.70533 7.07941 7.90781 7.38576 7.57772C7.6921 7.24764 8.05328 7.16512 8.27597 7.16512C8.49867 7.16512 8.7208 7.16794 8.9158 7.17699C9.12097 7.18716 9.39623 7.09955 9.66697 7.74277C9.94505 8.40294 10.6126 10.0246 10.6951 10.1902C10.7787 10.3552 10.8341 10.5479 10.7234 10.7678C10.6126 10.9877 10.5572 11.125 10.3899 11.3178C10.2226 11.5105 10.0394 11.7473 9.8891 11.8954C9.72179 12.0599 9.54827 12.2379 9.74271 12.568C9.93714 12.8981 10.6069 13.9771 11.5994 14.8509C12.874 15.9735 13.9496 16.3216 14.2831 16.4867C14.6166 16.6517 14.8116 16.624 15.006 16.4042C15.2004 16.1837 15.8403 15.4416 16.0624 15.1121C16.2845 14.7825 16.5072 14.8368 16.8136 14.947C17.1199 15.0567 18.7607 15.8536 19.0942 16.0187C19.4277 16.1837 19.6504 16.2662 19.734 16.4036C19.8177 16.5404 19.8177 17.2006 19.5396 17.9698Z" fill="white"/>
</svg>
