<svg width="24" height="24" viewBox="0 0 24 24" fill="none" xmlns="http://www.w3.org/2000/svg">
<path d="M12 0C5.37642 0 0 5.37642 0 12C0 18.6236 5.37642 24 12 24C18.6236 24 24 18.6236 24 12C24 5.37642 18.6236 0 12 0ZM12 0.727273C18.2301 0.727273 23.2727 5.76989 23.2727 12C23.2727 18.2301 18.2301 23.2727 12 23.2727C5.76989 23.2727 0.727273 18.2301 0.727273 12C0.727273 5.76989 5.76989 0.727273 12 0.727273ZM12 1.45455C11.598 1.45455 11.2727 1.77983 11.2727 2.18182C11.2727 2.58381 11.598 2.90909 12 2.90909C12.402 2.90909 12.7273 2.58381 12.7273 2.18182C12.7273 1.77983 12.402 1.45455 12 1.45455ZM9.46165 2.15341C9.45312 2.15199 9.4446 2.15341 9.4375 2.15341C9.41193 2.15483 9.3892 2.15909 9.36505 2.16477C9.17045 2.21733 9.0554 2.4162 9.10795 2.6108C9.16051 2.8054 9.35938 2.92045 9.55256 2.8679C9.74716 2.81534 9.86221 2.61648 9.81108 2.42188C9.76847 2.26421 9.62642 2.15483 9.46165 2.15341ZM14.5384 2.15341C14.375 2.15483 14.233 2.26563 14.1903 2.4233C14.1378 2.6179 14.2528 2.81676 14.4474 2.86932C14.642 2.92046 14.8409 2.8054 14.892 2.61222C14.9176 2.51847 14.9048 2.41904 14.8565 2.33523C14.8082 2.25142 14.7287 2.19034 14.6364 2.16477C14.6037 2.15767 14.571 2.15341 14.5384 2.15341ZM7.08239 3.13352C7.02131 3.13495 6.96165 3.15199 6.90909 3.18182C6.82528 3.23011 6.7642 3.30966 6.73864 3.40341C6.71449 3.49574 6.72727 3.59517 6.77557 3.67898C6.82386 3.76279 6.90341 3.82387 6.99716 3.84801C7.08949 3.87358 7.18892 3.8608 7.27273 3.8125C7.44602 3.71165 7.50568 3.48864 7.40483 3.31534C7.33949 3.20028 7.21591 3.13068 7.08239 3.13352ZM16.892 3.13494C16.7685 3.14063 16.6563 3.20881 16.5938 3.31676C16.4929 3.49005 16.554 3.71165 16.7273 3.8125C16.9006 3.91335 17.1236 3.85369 17.223 3.6804C17.2727 3.59659 17.2855 3.49716 17.2599 3.40341C17.2358 3.30966 17.1747 3.23011 17.0909 3.18182C17.0313 3.14773 16.9616 3.13068 16.892 3.13494ZM12 3.63636C11.7997 3.63636 11.6364 3.79972 11.6364 4C11.6364 4.20028 11.7997 4.36364 12 4.36364C12.2003 4.36364 12.3636 4.20028 12.3636 4C12.3636 3.79972 12.2003 3.63636 12 3.63636ZM5.0625 4.69318C4.96449 4.69318 4.86932 4.73153 4.80114 4.80114C4.65909 4.94176 4.65909 5.1733 4.80114 5.31392C4.94176 5.45597 5.1733 5.45597 5.31392 5.31392C5.45597 5.1733 5.45597 4.94176 5.31392 4.80114C5.24716 4.73296 5.15767 4.6946 5.0625 4.69318ZM18.9474 4.69318C18.8494 4.69318 18.7543 4.73153 18.6861 4.80114C18.544 4.94176 18.544 5.1733 18.6861 5.31392C18.8267 5.45597 19.0582 5.45597 19.1989 5.31392C19.3409 5.1733 19.3409 4.94176 19.1989 4.80114C19.1321 4.73296 19.0426 4.6946 18.9474 4.69318ZM12 5.09091C11.7997 5.09091 11.6364 5.25426 11.6364 5.45455C11.6364 5.65483 11.7997 5.81818 12 5.81818C12.2003 5.81818 12.3636 5.65483 12.3636 5.45455C12.3636 5.25426 12.2003 5.09091 12 5.09091ZM14.6151 5.20455L12.2372 10.5696C12.1591 10.5568 12.081 10.5455 12 10.5455C11.2003 10.5455 10.5455 11.2003 10.5455 12C10.5455 12.7997 11.2003 13.4545 12 13.4545C12.2685 13.4545 12.5171 13.3764 12.733 13.2486L15.7955 16.3082L16.3082 15.7955L13.2486 12.733C13.3764 12.517 13.4546 12.2685 13.4546 12C13.4546 11.5412 13.2344 11.1349 12.8992 10.8679L15.2798 5.49858L14.6151 5.20455ZM20.4943 6.72727C20.4332 6.72869 20.3736 6.74574 20.3196 6.77557C20.1463 6.87642 20.0867 7.09801 20.1875 7.27273C20.2884 7.44602 20.5099 7.50568 20.6832 7.40483C20.767 7.35795 20.8281 7.27841 20.8537 7.18466C20.8793 7.09091 20.8665 6.99148 20.8182 6.90909C20.7514 6.79403 20.6264 6.72443 20.4943 6.72727ZM3.48011 6.72727C3.35653 6.73296 3.24432 6.80114 3.18182 6.90909C3.08097 7.08239 3.14205 7.3054 3.31534 7.40483C3.48864 7.50568 3.71165 7.44602 3.8125 7.27273C3.91193 7.09943 3.85228 6.87642 3.67898 6.77699C3.61932 6.74148 3.54971 6.72443 3.48011 6.72727ZM2.51279 9.09659C2.34943 9.09659 2.20739 9.20739 2.16477 9.36506C2.11222 9.55966 2.22728 9.75852 2.42188 9.81108C2.61648 9.86222 2.81534 9.74716 2.8679 9.55256C2.91904 9.35938 2.80398 9.16051 2.60937 9.10795C2.57812 9.09943 2.54545 9.09517 2.51279 9.09659ZM21.4972 9.09659C21.4602 9.09517 21.4247 9.09801 21.3892 9.10796C21.1946 9.16051 21.0795 9.35938 21.1321 9.55256C21.1847 9.74716 21.3835 9.86222 21.5781 9.81108C21.7713 9.75853 21.8864 9.55966 21.8352 9.36506C21.7926 9.21166 21.6562 9.10227 21.4972 9.09659ZM2.18182 11.2727C1.77983 11.2727 1.45455 11.598 1.45455 12C1.45455 12.402 1.77983 12.7273 2.18182 12.7273C2.58381 12.7273 2.90909 12.402 2.90909 12C2.90909 11.598 2.58381 11.2727 2.18182 11.2727ZM12 11.2727C12.4063 11.2727 12.7273 11.5937 12.7273 12C12.7273 12.4063 12.4063 12.7273 12 12.7273C11.5937 12.7273 11.2727 12.4063 11.2727 12C11.2727 11.5937 11.5937 11.2727 12 11.2727ZM21.8182 11.2727C21.4162 11.2727 21.0909 11.598 21.0909 12C21.0909 12.402 21.4162 12.7273 21.8182 12.7273C22.2202 12.7273 22.5455 12.402 22.5455 12C22.5455 11.598 22.2202 11.2727 21.8182 11.2727ZM4 11.6364C3.79972 11.6364 3.63636 11.7997 3.63636 12C3.63636 12.2003 3.79972 12.3636 4 12.3636C4.20028 12.3636 4.36364 12.2003 4.36364 12C4.36364 11.7997 4.20028 11.6364 4 11.6364ZM5.45455 11.6364C5.25426 11.6364 5.09091 11.7997 5.09091 12C5.09091 12.2003 5.25426 12.3636 5.45455 12.3636C5.65483 12.3636 5.81818 12.2003 5.81818 12C5.81818 11.7997 5.65483 11.6364 5.45455 11.6364ZM18.5455 11.6364C18.3452 11.6364 18.1818 11.7997 18.1818 12C18.1818 12.2003 18.3452 12.3636 18.5455 12.3636C18.7457 12.3636 18.9091 12.2003 18.9091 12C18.9091 11.7997 18.7457 11.6364 18.5455 11.6364ZM20 11.6364C19.7997 11.6364 19.6364 11.7997 19.6364 12C19.6364 12.2003 19.7997 12.3636 20 12.3636C20.2003 12.3636 20.3636 12.2003 20.3636 12C20.3636 11.7997 20.2003 11.6364 20 11.6364ZM2.52983 14.1776C2.4929 14.1761 2.45739 14.1804 2.42188 14.1889C2.32813 14.2145 2.24858 14.2756 2.20029 14.3594C2.15199 14.4432 2.13921 14.5426 2.16477 14.6364C2.21733 14.8295 2.4162 14.9446 2.60938 14.892C2.80398 14.8409 2.91904 14.642 2.8679 14.4474C2.82671 14.2926 2.68892 14.1832 2.52983 14.1776ZM21.4801 14.1776C21.3168 14.1804 21.1747 14.2898 21.1321 14.4489C21.0795 14.642 21.1946 14.8409 21.3892 14.8935C21.5838 14.946 21.7827 14.831 21.8352 14.6364C21.8864 14.4418 21.7713 14.2429 21.5781 14.1918C21.5455 14.1818 21.5128 14.1776 21.4801 14.1776ZM3.48864 16.5455C3.42756 16.5469 3.3679 16.5639 3.31534 16.5938C3.14205 16.6946 3.08097 16.9162 3.18182 17.0909C3.23011 17.1733 3.30966 17.2344 3.40341 17.2599C3.49574 17.2855 3.59517 17.2727 3.67898 17.223C3.76279 17.1761 3.82387 17.0966 3.84801 17.0028C3.87358 16.9091 3.8608 16.8097 3.8125 16.7273C3.74574 16.6122 3.62074 16.5426 3.48864 16.5455ZM20.4844 16.5455C20.3608 16.5526 20.2486 16.6207 20.1875 16.7273C20.0866 16.902 20.1463 17.1236 20.3196 17.2244C20.4034 17.2727 20.5028 17.2855 20.5966 17.2614C20.6903 17.2358 20.7699 17.1747 20.8182 17.0909C20.8665 17.0085 20.8793 16.9091 20.8537 16.8153C20.8281 16.7216 20.767 16.642 20.6832 16.5952C20.6236 16.5597 20.554 16.5426 20.4844 16.5455ZM12 18.1818C11.7997 18.1818 11.6364 18.3452 11.6364 18.5455C11.6364 18.7457 11.7997 18.9091 12 18.9091C12.2003 18.9091 12.3636 18.7457 12.3636 18.5455C12.3636 18.3452 12.2003 18.1818 12 18.1818ZM5.0625 18.5795C4.96449 18.5781 4.86932 18.6165 4.80114 18.6861C4.65909 18.8267 4.65909 19.0582 4.80114 19.1989C4.94176 19.3409 5.1733 19.3409 5.31392 19.1989C5.45597 19.0582 5.45597 18.8267 5.31392 18.6861C5.24716 18.6179 5.15767 18.5795 5.0625 18.5795ZM18.9474 18.5795C18.8494 18.5781 18.7543 18.6165 18.6861 18.6861C18.544 18.8267 18.544 19.0582 18.6861 19.1989C18.8267 19.3409 19.0582 19.3409 19.1989 19.1989C19.3409 19.0582 19.3409 18.8267 19.1989 18.6861C19.1321 18.6179 19.0426 18.5795 18.9474 18.5795ZM12 19.6364C11.7997 19.6364 11.6364 19.7997 11.6364 20C11.6364 20.2003 11.7997 20.3636 12 20.3636C12.2003 20.3636 12.3636 20.2003 12.3636 20C12.3636 19.7997 12.2003 19.6364 12 19.6364ZM16.8991 20.1378C16.8395 20.1406 16.7798 20.1563 16.7273 20.1875C16.5526 20.2884 16.4929 20.5099 16.5938 20.6832C16.6946 20.858 16.9162 20.9176 17.0909 20.8182C17.1733 20.7699 17.2344 20.6903 17.2599 20.5966C17.2855 20.5028 17.2727 20.4034 17.223 20.3196C17.1577 20.2045 17.0327 20.1349 16.8991 20.1378ZM7.07387 20.1406C6.95029 20.1463 6.83807 20.2145 6.77557 20.321C6.72728 20.4048 6.71449 20.5043 6.73864 20.5966C6.76421 20.6903 6.82529 20.7699 6.90909 20.8182C7.08239 20.919 7.3054 20.858 7.40483 20.6847C7.50568 20.5114 7.44603 20.2884 7.27273 20.1875C7.21165 20.1534 7.14347 20.1364 7.07387 20.1406ZM12 21.0909C11.598 21.0909 11.2727 21.4162 11.2727 21.8182C11.2727 22.2202 11.598 22.5455 12 22.5455C12.402 22.5455 12.7273 22.2202 12.7273 21.8182C12.7273 21.4162 12.402 21.0909 12 21.0909ZM9.45455 21.1207C9.29261 21.1222 9.14915 21.2315 9.10796 21.3906C9.0554 21.5838 9.17046 21.7827 9.36364 21.8352C9.55824 21.8878 9.75711 21.7727 9.80966 21.5781C9.86222 21.3835 9.74716 21.1847 9.55256 21.1321C9.52131 21.125 9.48864 21.1207 9.45455 21.1207ZM14.5554 21.1207C14.5185 21.1193 14.4815 21.1236 14.4474 21.1321C14.2528 21.1847 14.1378 21.3835 14.1889 21.5781C14.2415 21.7727 14.4403 21.8878 14.6349 21.8352C14.8295 21.7827 14.9446 21.5838 14.892 21.3906C14.8509 21.2358 14.7145 21.1264 14.5554 21.1207Z" fill="#E4ECEE"/>
</svg>
